<svg width="20" height="20" viewBox="0 0 20 20" fill="none" xmlns="http://www.w3.org/2000/svg">
<path fill-rule="evenodd" clip-rule="evenodd" d="M5.293 12.707C5.48053 12.8945 5.73484 12.9998 6 12.9998C6.26516 12.9998 6.51947 12.8945 6.707 12.707L10 9.41399L13.293 12.707C13.3852 12.8025 13.4956 12.8787 13.6176 12.9311C13.7396 12.9835 13.8708 13.0111 14.0036 13.0122C14.1364 13.0134 14.2681 12.9881 14.391 12.9378C14.5139 12.8875 14.6255 12.8133 14.7194 12.7194C14.8133 12.6255 14.8875 12.5138 14.9378 12.3909C14.9881 12.2681 15.0134 12.1364 15.0123 12.0036C15.0111 11.8708 14.9835 11.7396 14.9311 11.6176C14.8787 11.4956 14.8025 11.3852 14.707 11.293L10.707 7.293C10.5195 7.10552 10.2652 7.00021 10 7.00021C9.73484 7.00021 9.48053 7.10552 9.293 7.293L5.293 11.293C5.10553 11.4805 5.00021 11.7348 5.00021 12C5.00021 12.2652 5.10553 12.5195 5.293 12.707Z" fill="black"/>
</svg>
